<svg xmlns="http://www.w3.org/2000/svg" viewBox="0 0 32 32" role="img" aria-label="לימוד יומי">
  <rect width="32" height="32" rx="7" fill="#1d5c7a"/>
  <!-- open book: echoes the tanach scroll, one spine for two study tracks -->
  <path d="M16 12.5 C13.3 10.6 10.4 10.1 7.5 10.8 V21.6 C10.4 20.9 13.3 21.4 16 23.3 C18.7 21.4 21.6 20.9 24.5 21.6 V10.8 C21.6 10.1 18.7 10.6 16 12.5 Z"
        fill="none" stroke="#f4f7f9" stroke-width="1.5" stroke-linejoin="round" stroke-linecap="round"/>
  <path d="M16 12.5 V23.3" stroke="#f4f7f9" stroke-width="1.3" stroke-linecap="round"/>
  <!-- gold spark, the orach chaim accent mark -->
  <path d="M16 5 C15.3 6.6 14.3 7.2 13.2 7.6 C14.3 8 15.3 8.7 16 10.3 C16.7 8.7 17.7 8 18.8 7.6 C17.7 7.2 16.7 6.6 16 5 Z" fill="#b8924a"/>
</svg>
